<!-- Generator: Adobe Illustrator 19.0.0, SVG Export Plug-In  -->
<svg version="1.1"
	 xmlns="http://www.w3.org/2000/svg" xmlns:xlink="http://www.w3.org/1999/xlink" xmlns:a="http://ns.adobe.com/AdobeSVGViewerExtensions/3.0/"
	 x="0px" y="0px" width="704.125px" height="159.313px" viewBox="0 0 704.125 159.313"
	 style="enable-background:new 0 0 704.125 159.313;" xml:space="preserve">
<style type="text/css">
	.st0{fill:none;stroke:#406D7B;stroke-width:25;stroke-miterlimit:10;}
</style>
<defs>
</defs>
<path class="st0" d="M12.5,12.5v71.438c0,34.725,28.15,62.875,62.875,62.875s62.875-28.15,62.875-62.875v-8.563
	c0-34.725,28.15-62.875,62.875-62.875S264,40.65,264,75.375v8.562c0,34.725,28.15,62.875,62.875,62.875s62.875-28.15,62.875-62.875
	v-8.563c0-34.725,28.15-62.875,62.875-62.875S515.5,40.65,515.5,75.375v8.563c0,34.725,28.15,62.875,62.875,62.875
	s62.875-28.15,62.875-62.875v-8.563c0-34.725,28.15-62.875,62.875-62.875"/>
</svg>